<svg width="114" height="33" viewBox="0 0 114 33" fill="none" xmlns="http://www.w3.org/2000/svg">
<path d="M15.5883 0.484375H11.8866C10.5043 0.484375 9.22601 1.24733 8.54351 2.47752L1.6722 14.9332C0.648448 16.7844 0.642664 19.0437 1.65485 20.8949C2.70753 22.8289 4.70298 24.0236 6.86617 24.0236H8.41626L11.1868 18.1388H7.28261C6.95293 18.1388 6.75049 17.7721 6.91822 17.4882L13.1591 6.58802C13.2343 6.4579 13.3731 6.3751 13.5235 6.3751H19.7181L16.8897 1.26507C16.6237 0.780094 16.1262 0.484375 15.5883 0.484375Z" fill="black"/>
<path d="M15.3115 32.7769H19.0132C20.3956 32.7769 21.6738 32.0139 22.3563 30.7837L29.2276 18.3339C30.2514 16.4827 30.2572 14.2234 29.245 12.3722C28.1923 10.4382 26.1969 9.24353 24.0337 9.24353H21.9052L19.314 15.1283H23.6172C23.9469 15.1283 24.1494 15.495 23.9816 15.7789L17.7465 26.6791C17.6714 26.8092 17.5325 26.892 17.3822 26.892H11.1876L14.0159 32.0021C14.2762 32.4811 14.7736 32.7769 15.3115 32.7769Z" fill="black"/>
<path d="M10.5559 13.2533L14.998 14.7319L20.3655 8.58095L17.0918 16.1277L20.6142 20.0312L15.7267 18.2687L10.0701 24.7154L13.633 16.8729L10.5559 13.2533Z" fill="black"/>
<path d="M40.6529 12.0117C40.6529 12.7332 40.7223 12.9698 41.0057 13.1531C41.3411 13.372 41.7287 13.4074 44.262 13.4074C48.1199 13.4074 48.1199 13.4074 48.1199 12.3369C48.1199 11.6154 47.8538 11.432 46.7028 11.4143L43.8687 11.3078L41.96 11.2191L41.0057 11.1836C38.0848 11.0949 37.2693 10.332 37.2693 7.67049C37.2693 5.3698 37.9055 4.3407 39.5365 3.97992C40.2248 3.83797 41.8559 3.76109 44.6842 3.76109C48.1199 3.76109 49.3577 3.92669 50.1905 4.50039C50.8962 4.99128 51.1796 5.74832 51.1796 7.1796C51.1796 7.25057 51.1796 7.50489 51.1622 7.74147H47.6919C47.6572 7.07314 47.6051 6.90754 47.3391 6.74785C47.0383 6.5645 46.5929 6.52902 44.048 6.52902C41.0057 6.52902 40.757 6.59999 40.757 7.48715C40.757 7.94255 40.9189 8.17322 41.2891 8.26785C41.6072 8.35656 42.5789 8.40979 45.0776 8.48668C48.9701 8.61088 49.7336 8.70551 50.4913 9.19049C51.3068 9.73461 51.6076 10.5508 51.6076 12.2305C51.6076 14.3301 51.1102 15.3592 49.8898 15.8323C49.1841 16.1044 47.6977 16.1931 44.1753 16.1931C40.514 16.1931 39.0796 16.0275 38.2467 15.4893C37.4312 14.9629 37.1651 14.2591 37.1651 12.5913V12.0117H40.6529Z" fill="black"/>
<path d="M58.4035 3.9385V8.26192H66.5299V3.9385H70.301V16.0098H66.5299V11.6509H58.4035V16.0098H54.6323V3.9385H58.4035Z" fill="black"/>
<path d="M77.4973 3.9385V16.0098H73.7261V3.9385H77.4973Z" fill="black"/>
<path d="M87.2317 3.9385L93.4089 12.9343H93.7791L93.6923 3.9385H97.3535V16.0098H91.1069L84.8949 6.99624H84.5074L84.5942 16.0098H80.933V3.9385H87.2317Z" fill="black"/>
<path d="M113.831 3.93853H100.771V6.77743H113.831V3.93853Z" fill="black"/>
<path d="M104.31 13.1175V11.1954H113.356V8.53389H100.771V16.0097H113.9V13.1175H104.31Z" fill="black"/>
<path d="M40.5205 20.2442V27.0458H46.8597V29.3701H37.6691V20.2442H40.5205Z" fill="black"/>
<path d="M61.4821 20.2442H57.254L52.5343 29.3701H55.6403L59.0875 22.3675H59.6254L63.0611 29.3701H66.1555L61.4821 20.2442Z" fill="black"/>
<path d="M71.9104 20.2442H78.319C80.4301 20.256 80.4301 20.256 80.835 20.2856C82.2925 20.398 82.7726 20.9717 82.7726 22.6277C82.7726 23.9289 82.466 24.4612 81.5695 24.7214C82.7495 24.9284 83.1081 25.4607 83.1081 26.9216C83.1081 28.2227 82.7726 28.891 81.986 29.1631C81.477 29.3405 81.3324 29.3524 78.3363 29.3701H71.9162V20.2442H71.9104ZM78.319 23.8461C79.2849 23.8461 79.6724 23.8165 79.8459 23.7337C80.0484 23.6509 80.1409 23.4202 80.1409 23.089C80.1409 22.7046 80.0194 22.5035 79.7418 22.4325C79.5972 22.403 79.5567 22.403 78.3247 22.3911H74.4958V23.8402H78.319V23.8461ZM78.3305 27.1818C79.95 27.17 79.95 27.17 80.1525 27.0694C80.378 26.9748 80.4764 26.7678 80.4764 26.3833C80.4764 25.9575 80.3549 25.7682 80.0484 25.6973C79.9153 25.6677 79.9153 25.6677 78.3363 25.6559H74.4958V27.1759H78.3305V27.1818Z" fill="black"/>
<path d="M91.7264 26.3478C91.7264 26.8978 91.7785 27.0752 91.9925 27.2113C92.247 27.3769 92.542 27.4005 94.4565 27.4005C97.3716 27.4005 97.3716 27.4005 97.3716 26.5962C97.3716 26.0461 97.1691 25.9101 96.3015 25.8983L94.1615 25.8155L92.7155 25.7445L91.9925 25.7149C89.7831 25.644 89.17 25.0703 89.17 23.0594C89.17 21.3205 89.65 20.5398 90.882 20.2678C91.4025 20.1554 92.6345 20.1022 94.7746 20.1022C97.3716 20.1022 98.3086 20.2264 98.9332 20.664C99.4711 21.0307 99.6851 21.6103 99.6851 22.6868C99.6851 22.74 99.6851 22.9352 99.6736 23.1126H97.0534C97.0245 22.604 96.9898 22.4857 96.7874 22.3615C96.5618 22.2254 96.2263 22.1959 94.3003 22.1959C91.9983 22.1959 91.8132 22.2491 91.8132 22.9233C91.8132 23.2664 91.9347 23.4438 92.2123 23.5089C92.4552 23.5798 93.1898 23.6212 95.0753 23.6745C98.0194 23.7691 98.592 23.8401 99.1704 24.2068C99.7835 24.6148 100.015 25.2299 100.015 26.5075C100.015 28.0925 99.6389 28.8732 98.7192 29.2281C98.1813 29.4351 97.0592 29.5001 94.3986 29.5001C91.6281 29.5001 90.5465 29.3759 89.9161 28.9678C89.303 28.5716 89.1005 28.0393 89.1005 26.7795V26.3419H91.7264V26.3478Z" fill="black"/>
<path d="M57.6117 29.3283H60.9837L59.3527 25.6613L57.6117 29.3283Z" fill="black"/>
</svg>
